<svg xmlns="http://www.w3.org/2000/svg" version="1.1" xmlns:xlink="http://www.w3.org/1999/xlink" xmlns:svgjs="http://svgjs.dev/svgjs" width="1000" height="1125" viewBox="0 0 1000 1125"><g transform="matrix(1,0,0,1,1.7053025658242404e-13,0)"><svg xmlns="http://www.w3.org/2000/svg" version="1.1" xmlns:xlink="http://www.w3.org/1999/xlink" xmlns:svgjs="http://svgjs.com/svgjs" viewBox="0 0 320 360" data-background-color="#ffffff" preserveAspectRatio="xMidYMid meet" height="1125" width="1000"><defs></defs><g id="tight-bounds" transform="matrix(1,0,0,1,0,0)"><svg viewBox="0 0 320 360" height="360" width="320"><g><svg xmlns="http://www.w3.org/2000/svg" version="1.1" xmlns:xlink="http://www.w3.org/1999/xlink" xmlns:svgjs="http://svgjs.com/svgjs"></svg></g><g><svg viewBox="0 0 320 360" height="360" width="320"><g><path d="M20.961 227.22l3.726 4.658-1.863-6.056c-0.466-2.795-3.726 0.466-1.863 1.398M25.153 224.425c1.397 2.329 2.795 4.658 2.795 6.987 0 3.261 2.795 4.658 5.123 5.589-3.261-3.726-5.124-13.974-7.918-12.576M204.017 26.929c7.918 0 15.371-0.932 23.756 0.931 20.495 5.124 37.729 15.371 49.374 29.811l32.606 52.169c1.397 13.042 4.192 27.482 3.726 43.319 3.261 0 2.795-4.658 6.521-5.59-3.726 9.316-5.59 20.961-6.521 34.469-2.329-7.453 0-18.632 0.466-24.687-3.261 5.124-5.124 1.397-5.124-0.932 0.466-3.726-1.397-3.261-2.795-4.658-5.124-4.658-8.384-9.782-12.11-17.7 2.329-6.055 2.795-14.905-4.658-19.563-2.329-1.397-5.124-3.726-6.521-7.453-1.863-5.124-5.124-11.179-4.193-19.097 0.466-2.329-6.987 5.124-11.179 1.863-18.166-12.576-36.332-27.016-58.224-39.127-11.645 0-20.029-4.192-24.221-9.316-3.726-4.658-0.932-10.713 4.658-11.179 3.261 0 6.987-0.932 9.782 0.932 0.466-1.863 2.329-4.192 4.657-4.192M157.904 16.215l0.932 0.466c4.658 0.932 6.987 7.453 12.11 5.124 0 3.261 0.466 6.521-0.466 8.85-1.397 3.726-5.59 3.726-8.85 3.726-31.208-1.863-49.374 11.179-68.471 22.358-5.124 3.261-10.713 5.59-14.906 9.782-20.029 18.632-41.921 35.866-47.045 70.335l-4.192 38.195c-0.466 4.192-5.124 8.384-4.192 13.508l3.26 22.824c-3.261-3.261-5.124 0.932-4.192 2.795 0.466 1.397 2.329 6.055 5.124 1.863 3.726 6.987 7.453 20.495 12.576 26.55 15.837 18.632 36.332 35.4 53.101 52.169 4.192-0.932 7.453-0.932 8.384-3.727 1.397 2.795-1.397 5.59-3.726 6.056 7.453 4.658 15.837 8.85 27.016 9.781 14.44 0.932 27.948 3.261 40.524 6.522 6.521-1.863 13.042-2.795 20.029-3.261 2.329 0 3.726-3.726 6.521-4.658l0.466-4.658c2.795 4.192 2.329-1.397 0.466-4.192 3.261 2.795 4.192 5.124 5.589 6.987 0-1.397 3.726-6.521 3.727-0.466l0.931-6.055c1.397-0.932 1.863 5.124 3.261 0.931 1.397-4.192 4.192-0.932 6.987-2.329-0.932 1.863-0.466 5.59 2.794 3.261l3.727-3.261c2.329 5.59 6.055 3.261 7.918 2.329 20.495-13.042 40.99-28.413 60.553-43.784l-0.466 6.055 2.329-7.453c2.329 2.329 4.192 0.466 5.124-0.931 2.795-4.658 6.521-9.316 12.577-13.508-7.453 20.029-16.303 35.866-27.482 48.908l-4.658 5.59c0 3.261-0.932 7.453-4.658 7.918-1.863 0.466-5.59-0.932-8.384 1.863-1.397 1.863 3.261 5.59-0.466 2.795-3.261-2.329-6.521 0-10.248 0.932-2.795 0.932 1.863 3.726 2.795 5.589 0.932 1.863 1.863 3.726 1.398 6.056l-5.124-5.59c-6.055 3.261-9.782 9.316-14.906 13.974-2.329 1.863-1.397 5.124-1.397 7.918-3.261 0-6.987-0.932-8.85 0.932-1.397 1.863-0.932 4.658-0.932 7.453-4.658-0.466-5.124-7.453-9.315-6.056-4.192 0.932-8.85 1.397-12.577 3.727 2.795 5.59-4.658 2.329-3.726 3.26-6.987-4.192-13.042-7.453-20.495-4.658-15.837-5.124-35.4-2.795-49.84-0.931 0-2.329 0.466-4.658-0.466-5.124-0.932 2.329-3.726 1.397-3.26 1.397-8.85-6.055-17.7-9.782-27.016-14.905-8.384 0.932-16.303-3.261-18.632-5.59-6.521-6.055-13.974-2.795-20.029-4.192-13.042-3.261-17.7-16.769-19.098-26.084-0.932-4.658-4.658-6.521-6.055-6.056-6.055-19.563-15.371-37.263-22.824-55.429-1.863-4.658-1.397-9.316-1.397-14.44 2.329 0.932 4.658 0.466 4.192-2.794-2.329-15.371-7.918-27.016-13.974-38.195 3.261-15.837 3.726-34.469 11.179-48.443 6.521-12.576 18.632-19.098 27.016-29.811 2.795-3.726 2.795-8.85 5.59-12.11 9.316-9.316 18.632-19.098 28.879-27.482 4.658-3.726 10.247 0 17.234-1.397 2.329-8.384 11.645-15.837 20.495-13.508 3.726 0.932 11.179-8.85 13.508-9.782 3.726-1.397 1.863 3.726 1.863 6.987 8.85-6.987 20.961-10.713 32.14-14.906" fill="#5d1049" data-fill-palette-color="tertiary"></path></g><g transform="matrix(1,0,0,1,56,102.65169126829268)"><svg viewBox="0 0 208 154.69661746341464" height="154.69661746341464" width="208"><g><svg viewBox="0 0 208 154.69661746341464" height="154.69661746341464" width="208"><g><svg viewBox="0 0 208 154.69661746341464" height="154.69661746341464" width="208"><g transform="matrix(1,0,0,1,0,93.50149551219513)"><svg viewBox="0 0 208 61.19512195121951" height="61.19512195121951" width="208"><g><svg viewBox="0 0 208 61.19512195121951" height="61.19512195121951" width="208"><g><svg viewBox="0 0 208 61.19512195121951" height="61.19512195121951" width="208"><g transform="matrix(1,0,0,1,0,0)"><svg width="208" viewBox="1.95 -37 163.99 48.25" height="61.19512195121951" data-palette-color="#e30425"><path d="M1.95-18L1.95-18Q1.95-21.25 3.08-24.38 4.2-27.5 6.38-30.08 8.55-32.65 11.7-34.18 14.85-35.7 18.85-35.7L18.85-35.7Q23.6-35.7 27-33.52 30.4-31.35 32.05-27.95L32.05-27.95 28.5-25.65Q27.45-27.9 25.83-29.23 24.2-30.55 22.33-31.1 20.45-31.65 18.65-31.65L18.65-31.65Q15.7-31.65 13.43-30.45 11.15-29.25 9.6-27.25 8.05-25.25 7.28-22.78 6.5-20.3 6.5-17.8L6.5-17.8Q6.5-15.05 7.43-12.5 8.35-9.95 10-8 11.65-6.05 13.9-4.9 16.15-3.75 18.8-3.75L18.8-3.75Q20.65-3.75 22.6-4.4 24.55-5.05 26.25-6.43 27.95-7.8 28.95-10L28.95-10 32.7-7.95Q31.6-5.3 29.3-3.45 27-1.6 24.18-0.65 21.35 0.3 18.6 0.3L18.6 0.3Q14.95 0.3 11.9-1.28 8.85-2.85 6.63-5.48 4.4-8.1 3.18-11.38 1.95-14.65 1.95-18ZM35.6-7.55L35.6-7.55Q35.6-10.05 37.02-11.88 38.45-13.7 40.95-14.7 43.45-15.7 46.75-15.7L46.75-15.7Q48.5-15.7 50.45-15.43 52.4-15.15 53.9-14.6L53.9-14.6 53.9-16.5Q53.9-19.5 52.1-21.23 50.3-22.95 47-22.95L47-22.95Q44.85-22.95 42.87-22.18 40.9-21.4 38.7-19.95L38.7-19.95 37.1-23.05Q39.65-24.8 42.2-25.68 44.75-26.55 47.5-26.55L47.5-26.55Q52.5-26.55 55.4-23.78 58.3-21 58.3-16.05L58.3-16.05 58.3-5Q58.3-4.2 58.62-3.83 58.95-3.45 59.7-3.4L59.7-3.4 59.7 0Q59.05 0.1 58.57 0.15 58.1 0.2 57.8 0.2L57.8 0.2Q56.25 0.2 55.47-0.65 54.7-1.5 54.6-2.45L54.6-2.45 54.5-4.1Q52.8-1.9 50.05-0.7 47.3 0.5 44.6 0.5L44.6 0.5Q42 0.5 39.95-0.58 37.9-1.65 36.75-3.48 35.6-5.3 35.6-7.55ZM52.6-5.7L52.6-5.7Q53.2-6.4 53.55-7.13 53.9-7.85 53.9-8.35L53.9-8.35 53.9-11.6Q52.35-12.2 50.65-12.53 48.95-12.85 47.3-12.85L47.3-12.85Q43.95-12.85 41.87-11.53 39.8-10.2 39.8-7.9L39.8-7.9Q39.8-6.65 40.47-5.48 41.15-4.3 42.47-3.55 43.8-2.8 45.75-2.8L45.75-2.8Q47.8-2.8 49.65-3.63 51.5-4.45 52.6-5.7ZM79.15-26.25L79.15-22.25Q75.85-22.2 73.32-20.58 70.8-18.95 69.75-16.1L69.75-16.1 69.75 0 65.35 0 65.35-26.1 69.45-26.1 69.45-20.05Q70.8-22.75 73.02-24.43 75.25-26.1 77.7-26.3L77.7-26.3Q78.2-26.3 78.55-26.3 78.9-26.3 79.15-26.25L79.15-26.25ZM81.34-13L81.34-13Q81.34-16.7 82.87-19.78 84.39-22.85 87.07-24.7 89.74-26.55 93.19-26.55L93.19-26.55Q96.34-26.55 98.84-24.9 101.34-23.25 102.74-20.9L102.74-20.9 102.74-36.5 107.14-36.5 107.14-5Q107.14-4.2 107.47-3.83 107.79-3.45 108.54-3.4L108.54-3.4 108.54 0Q107.29 0.2 106.59 0.2L106.59 0.2Q105.29 0.2 104.32-0.7 103.34-1.6 103.34-2.7L103.34-2.7 103.34-4.9Q101.79-2.4 99.19-0.95 96.59 0.5 93.79 0.5L93.79 0.5Q91.09 0.5 88.82-0.58 86.54-1.65 84.87-3.55 83.19-5.45 82.27-7.88 81.34-10.3 81.34-13ZM102.74-9.15L102.74-9.15 102.74-16.65Q102.14-18.35 100.79-19.73 99.44-21.1 97.77-21.93 96.09-22.75 94.44-22.75L94.44-22.75Q92.49-22.75 90.92-21.93 89.34-21.1 88.22-19.73 87.09-18.35 86.49-16.6 85.89-14.85 85.89-12.95L85.89-12.95Q85.89-11 86.57-9.25 87.24-7.5 88.47-6.15 89.69-4.8 91.32-4.05 92.94-3.3 94.84-3.3L94.84-3.3Q96.04-3.3 97.32-3.75 98.59-4.2 99.74-5 100.89-5.8 101.69-6.88 102.49-7.95 102.74-9.15ZM118.89 0L114.49 0 114.49-26.1 118.89-26.1 118.89 0ZM118.89-31L114.49-31 114.49-36.5 118.89-36.5 118.89-31ZM131.79 0L127.39 0 127.39-22.65 123.84-22.65 123.84-26.1 127.39-26.1 127.39-26.65Q127.39-29.85 128.36-32.18 129.34-34.5 131.14-35.75 132.94-37 135.39-37L135.39-37Q136.94-37 138.44-36.58 139.94-36.15 141.14-35.4L141.14-35.4 140.04-32.15Q139.34-32.65 138.31-32.95 137.29-33.25 136.29-33.25L136.29-33.25Q134.14-33.25 132.96-31.58 131.79-29.9 131.79-26.8L131.79-26.8 131.79-26.1 138.74-26.1 138.74-22.65 131.79-22.65 131.79 0ZM144.34 11L144.34 7.1Q144.99 7.15 145.64 7.23 146.28 7.3 146.64 7.3L146.64 7.3Q147.44 7.3 148.03 6.75 148.64 6.2 149.36 4.63 150.09 3.05 151.24 0L151.24 0 140.19-26.1 144.84-26.1 153.64-4.45 161.59-26.1 165.94-26.1 153.24 6.85Q152.78 8 151.91 9.03 151.03 10.05 149.69 10.65 148.34 11.25 146.44 11.25L146.44 11.25Q145.99 11.25 145.51 11.2 145.03 11.15 144.34 11L144.34 11Z" opacity="1" transform="matrix(1,0,0,1,0,0)" fill="#e30425" class="undefined-text-0" data-fill-palette-color="primary" id="text-0"></path></svg></g></svg></g></svg></g></svg></g><g transform="matrix(1,0,0,1,71.77244822835301,0)"><svg viewBox="0 0 64.45510354329397 84.57165853658537" height="84.57165853658537" width="64.45510354329397"><g><svg xmlns="http://www.w3.org/2000/svg" xmlns:xlink="http://www.w3.org/1999/xlink" version="1.1" x="0" y="0" viewBox="15.239999999999998 5 68.593 90.00099999999999" enable-background="new 0 0 100 100" xml:space="preserve" height="84.57165853658537" width="64.45510354329397" class="icon-icon-0" fill="#4e0d3a" data-fill-palette-color="accent" id="icon-0"><path d="M75.713 5H23.354c-4.481 0-8.114 3.697-8.114 8.184v73.699c0 4.487 3.633 8.118 8.12 8.118h52.359c4.48 0 8.114-3.631 8.114-8.118V13.118C83.833 8.631 80.199 5 75.713 5zM75.719 87.782H23.36c-0.503 0-0.905-0.409-0.905-0.9V13.184c0-0.491 0.404-0.966 0.9-0.966h52.359c0.503 0 0.905 0.409 0.905 0.9v73.699C76.619 87.307 76.214 87.782 75.719 87.782z" fill="#4e0d3a" data-fill-palette-color="accent"></path></svg></g></svg></g><g></g></svg></g></svg></g></svg></g></svg></g></svg><rect width="320" height="360" fill="transparent" stroke="transparent"></rect></g></svg></g></svg>